# xmcd
#
# Track frame offsets: 
#        150
#        13360
#        29785
#        58210
#        78010
#        97510
#        111085
#        129985
#        146785
#        166060
#        177985
#        201235
#
# Disc length: 2982 seconds
#
# Revision: 1
# Processed by: cddbd v1.5.2PL0 Copyright (c) Steve Scherf et al.
# Submitted via: ExactAudioCopy v0.95b3
#
DISCID=9f0ba40c
DTITLE=52nd Street Blues Project - Blues and Grass
DYEAR=2004
DGENRE=Bluegrass
TTITLE0=My Favorite Thing
TTITLE1=You Lied
TTITLE2=Recess
TTITLE3=My Prayer
TTITLE4=Qeen Esther's Blues
TTITLE5=Watermark
TTITLE6=I'm Goin'
TTITLE7=Where Do All The Girls Come From?
TTITLE8=A Miniature Of The Bass
TTITLE9=I Can't Take It
TTITLE10=Papa Don't Know
TTITLE11=Sunnyland
EXTD=
EXTT0=
EXTT1=
EXTT2=
EXTT3=
EXTT4=
EXTT5=
EXTT6=
EXTT7=
EXTT8=
EXTT9=
EXTT10=
EXTT11=
PLAYORDER=
